CD_DA

CATALOG "0000000000000"

// Track 1
TRACK AUDIO
NO COPY
NO PRE_EMPHASIS
TWO_CHANNEL_AUDIO
ISRC "800000000000"
FILE "/Users/Toni/Music/arccd/00103/00103.bin" 0 04:47:52


// Track 2
TRACK AUDIO
NO COPY
NO PRE_EMPHASIS
TWO_CHANNEL_AUDIO
FILE "/Users/Toni/Music/arccd/00103/00103.bin" 04:47:52 05:27:48


// Track 3
TRACK AUDIO
NO COPY
NO PRE_EMPHASIS
TWO_CHANNEL_AUDIO
FILE "/Users/Toni/Music/arccd/00103/00103.bin" 10:15:25 04:54:30


// Track 4
TRACK AUDIO
NO COPY
NO PRE_EMPHASIS
TWO_CHANNEL_AUDIO
FILE "/Users/Toni/Music/arccd/00103/00103.bin" 15:09:55 04:55:05


// Track 5
TRACK AUDIO
NO COPY
NO PRE_EMPHASIS
TWO_CHANNEL_AUDIO
FILE "/Users/Toni/Music/arccd/00103/00103.bin" 20:04:60 03:49:07


// Track 6
TRACK AUDIO
NO COPY
NO PRE_EMPHASIS
TWO_CHANNEL_AUDIO
FILE "/Users/Toni/Music/arccd/00103/00103.bin" 23:53:67 04:31:00


// Track 7
TRACK AUDIO
NO COPY
NO PRE_EMPHASIS
TWO_CHANNEL_AUDIO
FILE "/Users/Toni/Music/arccd/00103/00103.bin" 28:24:67 04:48:33


// Track 8
TRACK AUDIO
NO COPY
NO PRE_EMPHASIS
TWO_CHANNEL_AUDIO
FILE "/Users/Toni/Music/arccd/00103/00103.bin" 33:13:25 04:24:52


// Track 9
TRACK AUDIO
NO COPY
NO PRE_EMPHASIS
TWO_CHANNEL_AUDIO
FILE "/Users/Toni/Music/arccd/00103/00103.bin" 37:38:02 05:42:33


// Track 10
TRACK AUDIO
NO COPY
NO PRE_EMPHASIS
TWO_CHANNEL_AUDIO
FILE "/Users/Toni/Music/arccd/00103/00103.bin" 43:20:35 03:28:15

